<svg data-v-423bf9ae="" xmlns="http://www.w3.org/2000/svg" viewBox="0 0 755.2829792785922 163" class="iconAbove"><!----><!----><!----><g data-v-423bf9ae="" id="8f97395a-6355-40d5-b408-d1da1dbf4f35" fill="white" transform="matrix(4.962763434933113,0,0,4.962763434933113,-4.8634988576767455,84.43945614843405)"><path d="M10.14 15.82L5.56 11.24L0.98 15.82L0.98 4.07C0.98 3.92 1.11 3.79 1.25 3.79L2.87 3.79C3.02 3.79 3.14 3.92 3.14 4.07L3.14 10.61L5.56 8.19L7.98 10.61L7.98 4.07C7.98 3.92 8.11 3.79 8.26 3.79L9.87 3.79C10.02 3.79 10.14 3.92 10.14 4.07ZM20.16 15.54C20.16 15.69 20.03 15.82 19.89 15.82L12.24 15.82C12.08 15.82 11.96 15.69 11.96 15.54L11.96 4.06C11.96 3.91 12.08 3.78 12.24 3.78L19.61 3.78C19.77 3.78 19.89 3.91 19.89 4.06L19.89 5.70C19.89 5.85 19.77 5.96 19.61 5.96L14.14 5.96L14.14 8.71L19.33 8.71C19.49 8.71 19.61 8.82 19.61 8.97L19.61 10.61C19.61 10.77 19.49 10.89 19.33 10.89L14.14 10.89L14.14 13.62L19.89 13.62C20.03 13.62 20.16 13.75 20.16 13.90ZM29.83 11.16C29.83 11.00 29.71 10.89 29.55 10.89L28.63 10.89L26.92 4.05L26.91 3.98C26.87 3.88 26.77 3.81 26.66 3.81L24.82 3.81C24.71 3.81 24.61 3.88 24.57 3.98L24.56 4.06L21.71 15.41C21.71 15.43 21.71 15.44 21.70 15.44L21.70 15.50C21.70 15.67 21.83 15.79 21.97 15.79L23.66 15.79C23.77 15.79 23.88 15.71 23.91 15.60C23.91 15.58 23.93 15.57 23.93 15.57L24.54 13.06L26.94 13.06L27.55 15.55L27.57 15.60C27.61 15.71 27.71 15.79 27.82 15.79L29.51 15.79C29.67 15.79 29.78 15.67 29.78 15.50L29.78 15.47L29.76 15.40L29.18 13.06L29.55 13.06C29.71 13.06 29.83 12.95 29.83 12.80ZM25.09 10.89L25.75 8.30L26.39 10.89ZM38.25 5.68C38.25 5.84 38.09 5.96 37.91 5.96L35.24 5.96L35.24 15.47C35.24 15.65 35.11 15.81 34.97 15.81L33.32 15.81C33.18 15.81 33.05 15.65 33.05 15.47L33.05 5.96L30.32 5.96C30.17 5.96 30.04 5.84 30.04 5.68L30.04 4.05C30.04 3.89 30.17 3.78 30.32 3.78L37.91 3.78C38.09 3.78 38.25 3.89 38.25 4.05ZM47.92 15.53C47.92 15.68 47.80 15.81 47.66 15.81L46.00 15.81C45.86 15.81 45.74 15.68 45.74 15.53L45.74 10.88L41.90 10.88L41.90 15.53C41.90 15.68 41.79 15.81 41.64 15.81L40.00 15.81C39.84 15.81 39.72 15.68 39.72 15.53L39.72 4.10C39.72 3.92 39.84 3.77 40.00 3.77L41.64 3.77C41.79 3.77 41.90 3.92 41.90 4.10L41.90 8.69L45.74 8.69L45.74 4.10C45.74 3.92 45.86 3.77 46.00 3.77L47.66 3.77C47.80 3.77 47.92 3.92 47.92 4.10ZM57.67 15.54C57.67 15.69 57.54 15.82 57.40 15.82L49.74 15.82C49.59 15.82 49.46 15.69 49.46 15.54L49.46 4.06C49.46 3.91 49.59 3.78 49.74 3.78L57.12 3.78C57.27 3.78 57.40 3.91 57.40 4.06L57.40 5.70C57.40 5.85 57.27 5.96 57.12 5.96L51.65 5.96L51.65 8.71L56.84 8.71C56.99 8.71 57.12 8.82 57.12 8.97L57.12 10.61C57.12 10.77 56.99 10.89 56.84 10.89L51.65 10.89L51.65 13.62L57.40 13.62C57.54 13.62 57.67 13.75 57.67 13.90ZM66.92 15.37L64.69 11.42L64.39 10.89L64.32 10.77C66.35 10.32 67.40 8.82 67.40 7.35C67.40 6.38 66.95 5.46 66.18 4.82C65.39 4.14 64.29 3.79 63.01 3.79L58.93 3.79C58.77 3.79 58.65 3.92 58.65 4.06L58.65 5.17L58.79 5.42L58.79 5.43L60.65 8.71L58.65 8.71L58.65 15.54C58.65 15.69 58.77 15.82 58.93 15.82L60.56 15.82C60.70 15.82 60.83 15.69 60.83 15.54L60.83 10.89L61.88 10.89L62.17 11.42L64.57 15.65L64.60 15.69C64.64 15.76 64.72 15.82 64.82 15.82L66.70 15.82C66.85 15.82 66.96 15.69 66.96 15.53C66.96 15.48 66.96 15.44 66.93 15.40ZM62.86 8.19L61.61 5.98L63.01 5.98C64.53 5.98 65.20 6.69 65.20 7.35C65.20 7.91 64.69 8.53 63.56 8.68C63.43 8.69 63.29 8.71 63.15 8.71ZM83.44 5.67C83.44 5.82 83.31 5.95 83.17 5.95L78.67 5.95L80.95 8.69L81.73 8.69C81.93 8.69 82.07 8.81 82.07 8.96L82.07 10.60C82.07 10.75 81.93 10.88 81.73 10.88L77.42 10.88L77.42 15.51C77.42 15.67 77.31 15.81 77.15 15.81L75.52 15.81C75.36 15.81 75.24 15.67 75.24 15.51L75.24 8.69L78.09 8.69L75.24 5.25L75.24 4.06C75.24 3.89 75.36 3.77 75.52 3.77L83.17 3.77C83.31 3.77 83.44 3.89 83.44 4.06ZM89.67 15.82C86.35 15.82 83.65 13.12 83.65 9.80C83.65 6.48 86.35 3.78 89.67 3.78C92.99 3.78 95.69 6.48 95.69 9.80C95.69 13.12 92.99 15.82 89.67 15.82ZM89.67 5.96C87.56 5.96 85.83 7.69 85.83 9.80C85.83 11.91 87.56 13.62 89.67 13.62C91.78 13.62 93.49 11.91 93.49 9.80C93.49 7.69 91.78 5.96 89.67 5.96ZM105.29 15.37L103.07 11.42L102.76 10.89L102.69 10.77C104.72 10.32 105.77 8.82 105.77 7.35C105.77 6.38 105.32 5.46 104.55 4.82C103.77 4.14 102.66 3.79 101.39 3.79L97.30 3.79C97.15 3.79 97.02 3.92 97.02 4.06L97.02 5.17L97.16 5.42L97.16 5.43L99.02 8.71L97.02 8.71L97.02 15.54C97.02 15.69 97.15 15.82 97.30 15.82L98.94 15.82C99.08 15.82 99.20 15.69 99.20 15.54L99.20 10.89L100.25 10.89L100.55 11.42L102.94 15.65L102.97 15.69C103.01 15.76 103.10 15.82 103.19 15.82L105.07 15.82C105.22 15.82 105.34 15.69 105.34 15.53C105.34 15.48 105.34 15.44 105.31 15.40ZM101.23 8.19L99.99 5.98L101.39 5.98C102.90 5.98 103.57 6.69 103.57 7.35C103.57 7.91 103.07 8.53 101.93 8.68C101.81 8.69 101.67 8.71 101.53 8.71ZM115.23 15.54C115.23 15.69 115.11 15.82 114.97 15.82L107.31 15.82C107.16 15.82 107.03 15.69 107.03 15.54L107.03 4.06C107.03 3.91 107.16 3.78 107.31 3.78L114.69 3.78C114.84 3.78 114.97 3.91 114.97 4.06L114.97 5.70C114.97 5.85 114.84 5.96 114.69 5.96L109.21 5.96L109.21 8.71L114.41 8.71C114.56 8.71 114.69 8.82 114.69 8.97L114.69 10.61C114.69 10.77 114.56 10.89 114.41 10.89L109.21 10.89L109.21 13.62L114.97 13.62C115.11 13.62 115.23 13.75 115.23 13.90ZM124.45 15.29C124.81 15.12 125.16 14.92 125.50 14.69L125.50 14.67L125.51 14.67C125.51 14.66 125.51 14.66 125.52 14.66C125.64 14.56 125.65 14.38 125.54 14.27L124.49 13.02C124.40 12.91 124.24 12.88 124.12 12.95C124.12 12.96 124.11 12.96 124.11 12.96C122.51 14.04 120.32 13.76 119.04 12.26C117.67 10.64 117.87 8.22 119.48 6.85C120.75 5.77 122.54 5.66 123.90 6.45C124.01 6.51 124.12 6.50 124.21 6.43L125.52 5.32C125.64 5.22 125.65 5.04 125.54 4.91L125.51 4.89L125.47 4.86C123.27 3.29 120.20 3.35 118.06 5.17C115.51 7.32 115.21 11.14 117.36 13.68C119.14 15.78 122.05 16.35 124.45 15.29ZM134.74 11.16C134.74 11.00 134.61 10.89 134.46 10.89L133.53 10.89L131.82 4.05L131.81 3.98C131.77 3.88 131.67 3.81 131.56 3.81L129.72 3.81C129.61 3.81 129.51 3.88 129.47 3.98L129.46 4.06L126.62 15.41C126.62 15.43 126.62 15.44 126.60 15.44L126.60 15.50C126.60 15.67 126.73 15.79 126.87 15.79L128.56 15.79C128.67 15.79 128.79 15.71 128.81 15.60C128.81 15.58 128.83 15.57 128.83 15.57L129.44 13.06L131.84 13.06L132.45 15.55L132.47 15.60C132.51 15.71 132.61 15.79 132.72 15.79L134.41 15.79C134.57 15.79 134.68 15.67 134.68 15.50L134.68 15.47L134.67 15.40L134.08 13.06L134.46 13.06C134.61 13.06 134.74 12.95 134.74 12.80ZM129.99 10.89L130.65 8.30L131.29 10.89ZM144.34 12.28C144.34 12.38 144.33 13.22 143.79 14.07C143.30 14.88 142.30 15.83 140.24 15.83C138.61 15.83 137.34 15.15 136.65 13.93C136.33 13.34 136.21 12.77 136.16 12.40C136.16 12.38 136.15 12.35 136.15 12.32C136.15 12.18 136.26 12.05 136.40 12.04L138.12 12.04C138.24 12.05 138.32 12.12 138.35 12.24L138.35 12.25C138.35 12.26 138.36 12.28 138.36 12.29C138.39 12.46 138.46 12.70 138.60 12.91C138.89 13.40 139.44 13.65 140.24 13.65C141.09 13.65 141.64 13.41 141.93 12.94C142.13 12.61 142.16 12.26 142.16 12.26C142.16 11.87 142.06 11.41 141.33 11.12C140.80 10.89 140.24 10.88 140.24 10.88C140.14 10.88 139.24 10.86 138.32 10.50C136.91 9.93 136.14 8.81 136.14 7.34C136.14 7.20 136.16 5.89 137.19 4.87C137.91 4.13 138.95 3.75 140.24 3.75C141.06 3.75 142.25 3.93 143.16 4.86C144.05 5.75 144.27 6.89 144.33 7.45L144.33 7.48C144.33 7.64 144.21 7.77 144.06 7.77L142.37 7.77C142.25 7.76 142.16 7.66 142.13 7.55L142.13 7.50C142.09 7.31 142.02 7.03 141.88 6.75C141.68 6.40 141.30 5.94 140.24 5.94C139.55 5.94 139.05 6.09 138.73 6.41C138.35 6.79 138.32 7.34 138.32 7.34C138.32 7.73 138.42 8.18 139.15 8.47C139.68 8.68 140.24 8.69 140.24 8.69C140.34 8.69 141.23 8.71 142.16 9.09C143.57 9.67 144.34 10.81 144.34 12.28ZM153.17 5.68C153.17 5.84 153.02 5.96 152.84 5.96L150.16 5.96L150.16 15.47C150.16 15.65 150.04 15.81 149.90 15.81L148.25 15.81C148.11 15.81 147.98 15.65 147.98 15.47L147.98 5.96L145.25 5.96C145.10 5.96 144.97 5.84 144.97 5.68L144.97 4.05C144.97 3.89 145.10 3.78 145.25 3.78L152.84 3.78C153.02 3.78 153.17 3.89 153.17 4.05Z"></path></g><!----><g data-v-423bf9ae="" id="144e9ffe-f523-4ab1-b242-4c72b5bd8649" transform="matrix(2.8125,0,0,2.8125,333,0)" stroke="none" fill="white"><path d="M32 0H0v32h32V0zm-2.812 19.938H23.53C22.109 22.648 19.272 24.5 16 24.5s-6.109-1.852-7.529-4.562H2.812v-7.875H8.47C9.891 9.352 12.728 7.5 16 7.5s6.109 1.852 7.529 4.562h5.658v7.876z"></path></g><!----></svg>